<?xml version="1.0" encoding="UTF-8" standalone="no"?>
<!-- Created with Inkscape (http://www.inkscape.org/) -->

<svg
   xmlns:dc="http://purl.org/dc/elements/1.1/"
   xmlns:cc="http://creativecommons.org/ns#"
   xmlns:rdf="http://www.w3.org/1999/02/22-rdf-syntax-ns#"
   xmlns:svg="http://www.w3.org/2000/svg"
   xmlns="http://www.w3.org/2000/svg"
   xmlns:sodipodi="http://sodipodi.sourceforge.net/DTD/sodipodi-0.dtd"
   xmlns:inkscape="http://www.inkscape.org/namespaces/inkscape"
   width="210mm"
   height="297mm"
   viewBox="0 0 210 297"
   version="1.1"
   id="svg8"
   sodipodi:docname="PocketGamesIcon.svg"
   inkscape:version="0.92.3 (2405546, 2018-03-11)">
  <defs
     id="defs2" />
  <sodipodi:namedview
     id="base"
     pagecolor="#ffffff"
     bordercolor="#666666"
     borderopacity="1.0"
     inkscape:pageopacity="0.0"
     inkscape:pageshadow="2"
     inkscape:zoom="1.4142136"
     inkscape:cx="353.92552"
     inkscape:cy="661.91087"
     inkscape:document-units="mm"
     inkscape:current-layer="layer1"
     showgrid="true"
     inkscape:window-width="1600"
     inkscape:window-height="847"
     inkscape:window-x="-8"
     inkscape:window-y="-8"
     inkscape:window-maximized="1"
     objecttolerance="20"
     guidetolerance="10000"
     showguides="false">
    <inkscape:grid
       type="xygrid"
       id="grid4606"
       dotted="false" />
  </sodipodi:namedview>
  <metadata
     id="metadata5">
    <rdf:RDF>
      <cc:Work
         rdf:about="">
        <dc:format>image/svg+xml</dc:format>
        <dc:type
           rdf:resource="http://purl.org/dc/dcmitype/StillImage" />
        <dc:title />
      </cc:Work>
    </rdf:RDF>
  </metadata>
  <g
     inkscape:label="Layer 1"
     inkscape:groupmode="layer"
     id="layer1">
    <path
       style="fill:none;stroke:#000000;stroke-width:0.14927292px;stroke-linecap:butt;stroke-linejoin:miter;stroke-opacity:1"
       d="m 49.684015,151.89636 c 0,0 0,0 0,-72.669725 C 62.31392,61.665794 62.377859,61.576894 62.377859,61.576894"
       id="path10"
       inkscape:connector-curvature="0" />
    <path
       inkscape:connector-curvature="0"
       id="path43"
       d="m 149.53474,151.89636 c 0,0 0,0 0,-72.669725 C 136.90483,61.665794 136.8409,61.576894 136.8409,61.576894"
       style="fill:none;stroke:#000000;stroke-width:0.14927292px;stroke-linecap:butt;stroke-linejoin:miter;stroke-opacity:1" />
    <path
       inkscape:connector-curvature="0"
       id="path45"
       d="m 49.684015,151.89636 6.877954,9.56322 H 75.375263 L 81.840718,152.4699 85.991647,142 h 10.58127 l 0,-73.725788 H 88.533363 L 84.666666,61.576894 H 62.377859"
       style="fill:none;stroke:#000000;stroke-width:0.14927292px;stroke-linecap:butt;stroke-linejoin:miter;stroke-opacity:1"
       sodipodi:nodetypes="cccccccccc" />
    <path
       inkscape:connector-curvature="0"
       id="path4557"
       d="m 136.8409,61.576894 h -22.28881 l -3.86669,6.697318 h -8.02707 l 0,73.725788 h 10.56878 l 4.15093,10.4699 6.46545,8.98968 h 18.8133 l 6.87795,-9.56322"
       style="fill:none;stroke:#000000;stroke-width:0.26458332px;stroke-linecap:butt;stroke-linejoin:miter;stroke-opacity:1"
       sodipodi:nodetypes="cccccccccc" />
    <path
       style="fill:#dea527;stroke-width:0.5;fill-opacity:0"
       d="M 201.16568,591.77826 188.32872,573.92081 V 436.76186 299.6029 l 23.875,-33.22518 23.875,-33.22518 41.77873,-0.008 41.77874,-0.008 7.28774,12.625 7.28773,12.625 15.05853,0.13233 15.05853,0.13233 v 138.74267 138.74267 l -19.875,0.0104 -19.875,0.0104 -7.75,19.73716 -7.75,19.73715 -12.21006,17.00242 -12.21006,17.00247 h -35.32798 -35.32798 z"
       id="path900"
       inkscape:connector-curvature="0"
       transform="scale(0.26458333)" />
    <path
       style="fill:#dea527;fill-opacity:0;stroke-width:0.5"
       d="m 456.42744,592.76071 -12.12688,-16.875 -7.86092,-19.8691 -7.86092,-19.8691 -19.875,-0.006 -19.875,-0.006 V 397.39304 258.65037 l 15.09531,-0.13233 15.09531,-0.13233 7.0798,-12.25 7.07979,-12.25 42.00326,-0.12783 42.00325,-0.12782 23.82164,33.12097 23.82164,33.12096 -0.0145,136.75686 -0.0145,136.75686 -13.05156,18.125 -13.05155,18.125 h -35.07112 -35.07112 z"
       id="path902"
       inkscape:connector-curvature="0"
       transform="scale(0.26458333)" />
    <path
       style="fill:#dea527;fill-opacity:0;stroke-width:0.5"
       d="m 456.42744,592.76071 -12.12688,-16.875 -7.86092,-19.8691 -7.86092,-19.8691 -19.875,-0.006 -19.875,-0.006 V 397.39304 258.65037 l 15.09531,-0.13233 15.09531,-0.13233 7.0798,-12.25 7.07979,-12.25 42.00326,-0.12783 42.00325,-0.12782 23.82164,33.12097 23.82164,33.12096 -0.0145,136.75686 -0.0145,136.75686 -13.05156,18.125 -13.05155,18.125 h -35.07112 -35.07112 z"
       id="path904"
       inkscape:connector-curvature="0"
       transform="scale(0.26458333)" />
    <path
       style="fill:#dea527;fill-opacity:0;stroke-width:0.5"
       d="m 456.42744,592.76071 -12.12688,-16.875 -7.86092,-19.8691 -7.86092,-19.8691 -19.875,-0.006 -19.875,-0.006 V 397.39304 258.65037 l 15.09531,-0.13233 15.09531,-0.13233 7.0798,-12.25 7.07979,-12.25 42.00326,-0.12783 42.00325,-0.12782 23.82164,33.12097 23.82164,33.12096 -0.0145,136.75686 -0.0145,136.75686 -13.05156,18.125 -13.05155,18.125 h -35.07112 -35.07112 z"
       id="path906"
       inkscape:connector-curvature="0"
       transform="scale(0.26458333)" />
    <path
       style="fill:#dea527;fill-opacity:0;stroke-width:0.5"
       d="m 456.42744,592.76071 -12.12688,-16.875 -7.86092,-19.8691 -7.86092,-19.8691 -19.875,-0.006 -19.875,-0.006 V 397.39304 258.65037 l 15.09531,-0.13233 15.09531,-0.13233 7.0798,-12.25 7.07979,-12.25 42.00326,-0.12783 42.00325,-0.12782 23.82164,33.12097 23.82164,33.12096 -0.0145,136.75686 -0.0145,136.75686 -13.05156,18.125 -13.05155,18.125 h -35.07112 -35.07112 z"
       id="path908"
       inkscape:connector-curvature="0"
       transform="scale(0.26458333)" />
    <path
       style="fill:#dea527;fill-opacity:0;stroke-width:0.5"
       d="m 456.42744,592.76071 -12.12688,-16.875 -7.86092,-19.8691 -7.86092,-19.8691 -19.875,-0.006 -19.875,-0.006 V 397.39304 258.65037 l 15.09531,-0.13233 15.09531,-0.13233 7.0798,-12.25 7.07979,-12.25 42.00326,-0.12783 42.00325,-0.12782 23.82164,33.12097 23.82164,33.12096 -0.0145,136.75686 -0.0145,136.75686 -13.05156,18.125 -13.05155,18.125 h -35.07112 -35.07112 z"
       id="path910"
       inkscape:connector-curvature="0"
       transform="scale(0.26458333)" />
  </g>
  <g
     inkscape:groupmode="layer"
     id="layer2"
     inkscape:label="Buttons"
     style="display:none">
    <path
       style="fill:none;stroke:#000000;stroke-width:0.26458332px;stroke-linecap:butt;stroke-linejoin:miter;stroke-opacity:1"
       d="M 87.312501,101.20833 H 76.729167 V 90.625 h -7.9375 v 10.58333 H 58.208334 l 10e-7,7.9375 h 10.583333 v 10.58333 h 7.9375 v -10.58333 h 10.583334 z"
       id="path4631"
       inkscape:connector-curvature="0"
       sodipodi:nodetypes="ccccccccccccc" />
    <circle
       id="path4637"
       cx="23.153954"
       cy="157.62096"
       style="stroke-width:0.2110111"
       r="4.2202225"
       transform="rotate(-45)" />
    <circle
       r="4.2202225"
       style="stroke-width:0.2110111"
       cy="172.5834"
       cx="23.153954"
       id="circle4647"
       transform="rotate(-45)" />
    <circle
       r="4.2202225"
       style="stroke-width:0.2110111"
       cy="-8.5264864"
       cx="157.62096"
       id="circle4649"
       transform="rotate(45)" />
    <circle
       id="circle4651"
       cx="172.5834"
       cy="-8.5264864"
       style="stroke-width:0.2110111"
       r="4.2202225"
       transform="rotate(45)" />
  </g>
</svg>
